<?xml version="1.0" encoding="UTF-8" standalone="no"?>
<svg
   version="1.1"
   viewBox="-5 -10 110 110"
   id="svg3"
   sodipodi:docname="download-light.svg"
   width="110"
   height="110"
   inkscape:version="1.3.2 (091e20e, 2023-11-25)"
   xmlns:inkscape="http://www.inkscape.org/namespaces/inkscape"
   xmlns:sodipodi="http://sodipodi.sourceforge.net/DTD/sodipodi-0.dtd"
   xmlns="http://www.w3.org/2000/svg"
   xmlns:svg="http://www.w3.org/2000/svg">
  <defs
     id="defs3" />
  <sodipodi:namedview
     id="namedview3"
     pagecolor="#ffffff"
     bordercolor="#000000"
     borderopacity="0.25"
     inkscape:showpageshadow="2"
     inkscape:pageopacity="0.0"
     inkscape:pagecheckerboard="0"
     inkscape:deskcolor="#d1d1d1"
     showguides="true"
     inkscape:zoom="4.9445096"
     inkscape:cx="45.201652"
     inkscape:cy="57.336323"
     inkscape:window-width="1432"
     inkscape:window-height="878"
     inkscape:window-x="0"
     inkscape:window-y="38"
     inkscape:window-maximized="0"
     inkscape:current-layer="svg3">
    <sodipodi:guide
       position="79.513699,89.43426"
       orientation="0,-1"
       id="guide3"
       inkscape:locked="false" />
    <sodipodi:guide
       position="15.158898,22.76483"
       orientation="0,-1"
       id="guide4"
       inkscape:locked="false" />
    <sodipodi:guide
       position="21.43792,27.079745"
       orientation="1,0"
       id="guide5"
       inkscape:locked="false" />
    <sodipodi:guide
       position="88.380857,37.394216"
       orientation="1,0"
       id="guide6"
       inkscape:locked="false" />
  </sodipodi:namedview>
  <path
     d="m 16.702863,50.808946 c 0.01172,1.1484 0.94531,2.0664 2.0898,2.0625 h 18.762 c 1.1367,-0.01172 2.0508,-0.92578 2.0625,-2.0625 0.0039,-1.1445 -0.91406,-2.0781 -2.0625,-2.0898 h -16.672 v -33.586 h 58.316 v 33.586 h -16.641 0.0039 c -0.55469,-0.0039 -1.0898,0.21875 -1.4805,0.60938 -0.39453,0.39453 -0.61328,0.92578 -0.60938,1.4805 0.01172,1.1484 0.94531,2.0664 2.0898,2.0625 h 18.73 c 1.1445,0.0039 2.082,-0.91406 2.0938,-2.0625 v -37.77 c 0,-0.55469 -0.21875,-1.0898 -0.61328,-1.4805 -0.39062,-0.39453 -0.92578,-0.61328 -1.4805,-0.60938 h -62.5 c -0.55469,-0.0039 -1.0859,0.21484 -1.4805,0.60938 -0.39062,0.39062 -0.61328,0.92578 -0.60938,1.4805 z"
     id="path1"
     style="fill:#ffffff" />
  <path
     d="m 47.952863,48.526946 c -0.0039,-1.1562 0.93359,-2.0977 2.0898,-2.0898 1.1562,-0.0039 2.0977,0.93359 2.0898,2.0898 v 27.004 h -4.1836 z"
     id="path2"
     style="fill:#ffffff" />
  <path
     d="m 36.175863,61.659946 c 0.39062,-0.39453 0.92188,-0.61328 1.4727,-0.61328 0.55469,0 1.0859,0.21875 1.4766,0.61328 l 12.395,12.395 h 0.0039 c 0.39063,0.39062 0.61328,0.92188 0.61328,1.4766 0,0.55469 -0.22266,1.0859 -0.61328,1.4766 -0.39062,0.39062 -0.92187,0.61328 -1.4766,0.61328 -0.55473,0 -1.0859,-0.22266 -1.4766,-0.61328 l -12.395,-12.395 c -0.39453,-0.39062 -0.61719,-0.92187 -0.61719,-1.4766 0,-0.55473 0.22266,-1.0859 0.61719,-1.4766 z"
     id="path3"
     style="fill:#ffffff" />
  <path
     d="m 48.569863,74.054946 12.395,-12.395 c 0.39062,-0.39453 0.92188,-0.61328 1.4766,-0.61328 0.55469,0 1.0859,0.21875 1.4766,0.61328 0.39062,0.39062 0.61328,0.92187 0.61328,1.4766 0,0.55473 -0.22266,1.0859 -0.61328,1.4766 l -12.395,12.395 c -0.39062,0.39062 -0.92187,0.61328 -1.4766,0.61328 -0.55473,0 -1.0859,-0.22266 -1.4766,-0.61328 -0.39453,-0.39062 -0.61328,-0.92188 -0.61328,-1.4766 0,-0.55469 0.21875,-1.0859 0.61328,-1.4766 z"
     id="path4"
     style="fill:#ffffff" />
  <path
     d="m 47.952863,33.944946 c 0,-0.55469 0.21875,-1.0859 0.60938,-1.4805 0.39453,-0.39062 0.92969,-0.61328 1.4844,-0.60938 0.55469,-0.0039 1.0859,0.21875 1.4805,0.60938 0.39062,0.39453 0.61328,0.92578 0.60938,1.4805 v 6.2461 c -0.01172,1.1445 -0.94531,2.0625 -2.0898,2.0586 -1.1445,0.0039 -2.082,-0.91406 -2.0938,-2.0586 z"
     id="path5"
     style="fill:#ffffff" />
</svg>
