<?xml version="1.0" encoding="UTF-8" standalone="no"?>
<svg
   version="1.1"
   viewBox="-5 -10 110 110"
   id="svg3"
   sodipodi:docname="open-out-light.svg"
   width="110"
   height="110"
   inkscape:version="1.3.2 (091e20e, 2023-11-25)"
   xmlns:inkscape="http://www.inkscape.org/namespaces/inkscape"
   xmlns:sodipodi="http://sodipodi.sourceforge.net/DTD/sodipodi-0.dtd"
   xmlns="http://www.w3.org/2000/svg"
   xmlns:svg="http://www.w3.org/2000/svg">
  <defs
     id="defs3" />
  <sodipodi:namedview
     id="namedview3"
     pagecolor="#ffffff"
     bordercolor="#000000"
     borderopacity="0.25"
     inkscape:showpageshadow="2"
     inkscape:pageopacity="0.0"
     inkscape:pagecheckerboard="0"
     inkscape:deskcolor="#d1d1d1"
     showguides="true"
     inkscape:zoom="4.9445096"
     inkscape:cx="45.201652"
     inkscape:cy="57.336323"
     inkscape:window-width="1432"
     inkscape:window-height="878"
     inkscape:window-x="0"
     inkscape:window-y="38"
     inkscape:window-maximized="0"
     inkscape:current-layer="svg3">
    <sodipodi:guide
       position="79.513699,89.43426"
       orientation="0,-1"
       id="guide3"
       inkscape:locked="false" />
    <sodipodi:guide
       position="15.158898,22.76483"
       orientation="0,-1"
       id="guide4"
       inkscape:locked="false" />
    <sodipodi:guide
       position="21.43792,27.079745"
       orientation="1,0"
       id="guide5"
       inkscape:locked="false" />
    <sodipodi:guide
       position="88.380857,37.394216"
       orientation="1,0"
       id="guide6"
       inkscape:locked="false" />
  </sodipodi:namedview>
  <path
     d="m 18.758,21.074 c -0.55469,-0.0039 -1.0859,0.21484 -1.4805,0.60938 -0.39453,0.39062 -0.61328,0.92578 -0.60938,1.4805 v 52.074 c -0.0039,0.55469 0.21484,1.0898 0.60938,1.4805 0.39453,0.39453 0.92578,0.61328 1.4805,0.60938 h 52.074 c 0.55469,0.0039 1.0898,-0.21484 1.4805,-0.60938 0.39453,-0.39062 0.61328,-0.92578 0.60938,-1.4805 v -27.066 c 0.0039,-0.55469 -0.21484,-1.0898 -0.60938,-1.4844 -0.39062,-0.39062 -0.92578,-0.60938 -1.4805,-0.60938 -0.55469,0 -1.0898,0.21875 -1.4805,0.61328 -0.39453,0.39062 -0.61328,0.92578 -0.61328,1.4805 v 25.008 h -47.922 v -47.922 h 25.008 c 0.55859,0 1.0898,-0.21875 1.4844,-0.61328 0.39062,-0.39062 0.60938,-0.92578 0.60938,-1.4805 0,-0.55469 -0.21875,-1.0898 -0.60938,-1.4805 -0.39453,-0.39453 -0.92578,-0.61328 -1.4844,-0.60938 z"
     id="path1"
     inkscape:label="open-out-2"
     style="fill:#ffffff" />
  <path
     d="m 54.191,10.398 c -0.55469,-0.0078 -1.0938,0.20312 -1.4922,0.58984 -0.39844,0.38672 -0.625,0.91406 -0.63281,1.4688 -0.0039,1.1484 0.92188,2.0859 2.0664,2.0938 l 22.168,0.21875 -44.441,44.41 c -0.81641,0.8125 -0.81641,2.1406 0,2.9531 0.8125,0.81641 2.1406,0.81641 2.9531,0 l 44.352,-44.352 v 22.055 h 0.0039 c -0.0039,0.55469 0.21484,1.0859 0.60938,1.4805 0.39062,0.39062 0.92578,0.61328 1.4805,0.60938 1.1445,-0.01172 2.0625,-0.94531 2.0586,-2.0898 v -27.102 c -0.01172,-1.1328 -0.92578,-2.0469 -2.0586,-2.0586 z"
     id="path2"
     style="display:inline;fill:#ffffff"
     inkscape:label="open-out-1" />
</svg>
