<?xml version="1.0" encoding="UTF-8" standalone="no"?>
<svg
   version="1.1"
   viewBox="-5 -10 110 110"
   id="svg3"
   sodipodi:docname="run.svg"
   width="110"
   height="110"
   inkscape:version="1.3.2 (091e20e, 2023-11-25)"
   xmlns:inkscape="http://www.inkscape.org/namespaces/inkscape"
   xmlns:sodipodi="http://sodipodi.sourceforge.net/DTD/sodipodi-0.dtd"
   xmlns="http://www.w3.org/2000/svg"
   xmlns:svg="http://www.w3.org/2000/svg">
  <defs
     id="defs3" />
  <sodipodi:namedview
     id="namedview3"
     pagecolor="#ffffff"
     bordercolor="#000000"
     borderopacity="0.25"
     inkscape:showpageshadow="2"
     inkscape:pageopacity="0.0"
     inkscape:pagecheckerboard="0"
     inkscape:deskcolor="#d1d1d1"
     showguides="true"
     inkscape:zoom="4.9445096"
     inkscape:cx="45.201651"
     inkscape:cy="57.336323"
     inkscape:window-width="1432"
     inkscape:window-height="878"
     inkscape:window-x="0"
     inkscape:window-y="38"
     inkscape:window-maximized="0"
     inkscape:current-layer="svg3">
    <sodipodi:guide
       position="79.513699,89.43426"
       orientation="0,-1"
       id="guide3"
       inkscape:locked="false" />
    <sodipodi:guide
       position="15.158898,22.76483"
       orientation="0,-1"
       id="guide4"
       inkscape:locked="false" />
    <sodipodi:guide
       position="21.43792,27.079745"
       orientation="1,0"
       id="guide5"
       inkscape:locked="false" />
    <sodipodi:guide
       position="88.380857,37.394216"
       orientation="1,0"
       id="guide6"
       inkscape:locked="false" />
  </sodipodi:namedview>
  <path
     d="m 19.938129,33.983949 c -0.53125,-0.14453 -1.1016,-0.07031 -1.582,0.20703 -0.47656,0.27734 -0.82812,0.73438 -0.96875,1.2695 -3.0859,11.504 0.1875,23.781 8.6133,32.203 13.008,13.004 34.176,13.004 47.184,0 0.57812,-0.58203 1.125,-1.1914 1.6602,-1.8164 0.73828,-0.86719 0.64453,-2.1719 -0.21875,-2.9219 -0.41797,-0.36328 -0.96484,-0.54688 -1.5195,-0.50781 -0.55469,0.04297 -1.0703,0.30078 -1.4336,0.72266 -0.46875,0.54297 -0.9375,1.0586 -1.4453,1.5703 -11.414,11.414 -29.863,11.41 -41.277,0 -7.375,-7.375 -10.234,-18.102 -7.5352,-28.176 0.14453,-0.53125 0.07031,-1.1016 -0.20703,-1.582 -0.27734,-0.47656 -0.73438,-0.82812 -1.2656,-0.96875 z"
     id="path1" />
  <path
     d="m 49.590129,10.729949 c -8.5391,0 -17.086,3.2773 -23.59,9.7812 -1.1914,1.1914 -2.293,2.457 -3.293,3.8125 -0.32813,0.44922 -0.46484,1.0117 -0.37891,1.5586 0.08984,0.55078 0.39062,1.0391 0.83984,1.3633 0.44922,0.33203 1.0078,0.46484 1.5586,0.37891 0.54688,-0.08594 1.0391,-0.38672 1.3633,-0.83984 0.87109,-1.1875 1.8203,-2.3125 2.8594,-3.3516 11.414,-11.414 29.863,-11.41 41.277,0 7.375,7.375 10.238,18.133 7.5352,28.203 l 0.0039,0.0039 c -0.14453,0.53125 -0.07031,1.1016 0.20703,1.582 0.27734,0.47656 0.73438,0.82812 1.2656,0.96875 0.53516,0.14453 1.1055,0.07031 1.582,-0.20703 0.48047,-0.27734 0.82812,-0.73438 0.97266,-1.2695 3.0859,-11.504 -0.1875,-23.781 -8.6133,-32.203 -6.5039,-6.5039 -15.051,-9.7812 -23.59,-9.7812 z"
     id="path2" />
  <path
     d="m 63.184129,62.405949 c -1.1445,0.01172 -2.0625,0.94531 -2.0586,2.0898 0.01172,1.1328 0.92578,2.0469 2.0586,2.0586 h 7.9961 v 8.2422 l 0.0039,0.0039 c -0.0039,0.55469 0.21484,1.0859 0.60938,1.4805 0.39062,0.39062 0.92578,0.61328 1.4805,0.60938 0.55469,0.0039 1.0898,-0.21875 1.4805,-0.60938 0.39453,-0.39453 0.61328,-0.92578 0.60938,-1.4805 v -10.305 c 0.0039,-0.55469 -0.21484,-1.0898 -0.60938,-1.4805 -0.39062,-0.39453 -0.92578,-0.61328 -1.4805,-0.60938 z"
     id="path3" />
  <path
     d="m 24.031129,13.159949 c -1.1445,0.01172 -2.0664,0.94531 -2.0625,2.0938 v 10.336 -0.0039 c 0.01172,1.1328 0.92969,2.0508 2.0625,2.0625 h 10.09 -0.0039 c 1.1484,0.0039 2.082,-0.91797 2.0938,-2.0625 0,-0.55469 -0.21875,-1.0859 -0.60938,-1.4805 -0.39453,-0.39063 -0.92578,-0.61328 -1.4844,-0.60938 h -7.9961 v -8.2422 c 0.0039,-0.55859 -0.21875,-1.0898 -0.60938,-1.4844 -0.39453,-0.39062 -0.92578,-0.60938 -1.4805,-0.60938 z"
     id="path4" />
  <path
     d="m 38.582861,26.809097 c -0.355163,0.202038 -0.574225,0.578472 -0.572102,0.986804 v 34.034261 c 0.0021,0.871981 0.950653,1.414301 1.70988,0.976187 L 69.345995,45.790308 c 0.76135,-0.43598 0.759227,-1.527001 -0.0021,-1.962992 L 39.718516,26.809097 c -0.35091,-0.202037 -0.782638,-0.202037 -1.135655,0 z m 1.705633,2.945549 26.212239,15.051145 -26.213873,15.05931 z"
     id="path1-9"
     style="stroke-width:0.544444" />
</svg>
