<svg version="1.1" viewBox="0.0 0.0 130.73228346456693 136.33333333333334" fill="none" stroke="none" stroke-linecap="square" stroke-miterlimit="10" xmlns:xlink="http://www.w3.org/1999/xlink" xmlns="http://www.w3.org/2000/svg"><clipPath id="p.0"><path d="m0 0l130.73228 0l0 136.33333l-130.73228 0l0 -136.33333z" clip-rule="nonzero"/></clipPath><g clip-path="url(#p.0)"><path fill="#fff" fill-opacity="0.0" d="m0 0l130.73228 0l0 136.33333l-130.73228 0z" fill-rule="evenodd"/><path fill="#fff" fill-opacity="0.0" d="m85.00784 127.73072l-54.12034 -35.829636l-0.011293411 -40.05727l54.100132 -35.82963z" fill-rule="evenodd"/><path stroke="#fff" stroke-width="1.0" stroke-linejoin="round" stroke-linecap="butt" d="m85.00784 127.73072l-54.12034 -35.829636l-0.011293411 -40.05727l54.100132 -35.82963z" fill-rule="evenodd"/><path fill="#fff" fill-opacity="0.0" d="m96.19424 48.707935l0 0c14.072395 14.081085 15.108833 35.867542 2.3149643 48.66142l-25.480316 -25.496063z" fill-rule="evenodd"/><path fill="#fff" fill-opacity="0.0" d="m96.19424 48.707935l0 0c14.072395 14.081085 15.108833 35.867542 2.3149643 48.66142" fill-rule="evenodd"/><path stroke="#fff" stroke-width="1.0" stroke-linejoin="round" stroke-linecap="butt" d="m96.19424 48.707935l0 0c14.072395 14.081085 15.108833 35.867542 2.3149643 48.66142" fill-rule="evenodd"/><path fill="#fff" fill-opacity="0.0" d="m106.56055 39.392162l0 0c19.751793 19.76049 21.211273 50.332035 3.259842 68.28346l-35.76378 -35.779526z" fill-rule="evenodd"/><path fill="#fff" fill-opacity="0.0" d="m106.56055 39.392162l0 0c19.751793 19.76049 21.211273 50.332035 3.259842 68.28346" fill-rule="evenodd"/><path stroke="#fff" stroke-width="1.0" stroke-linejoin="round" stroke-linecap="butt" d="m106.56055 39.392162l0 0c19.751793 19.76049 21.211273 50.332035 3.259842 68.28346" fill-rule="evenodd"/><path fill="#fff" fill-opacity="0.0" d="m5.4934382 52.297646l25.385826 0l0 39.590553l-25.385826 0z" fill-rule="evenodd"/><path stroke="#fff" stroke-width="1.0" stroke-linejoin="round" stroke-linecap="butt" d="m5.4934382 52.297646l25.385826 0l0 39.590553l-25.385826 0z" fill-rule="evenodd"/></g></svg>
